# AST/ASF file generated using VICON BodyLanguage
# -----------------------------------------------
:version 1.10
:name VICON
:units
  mass 1.0
  length 0.45
  angle deg
:documentation
   .ast/.asf automatically generated from VICON data using
   VICON BodyBuilder and BodyLanguage model FoxedUp or BRILLIANT.MOD
:root
   order TX TY TZ RX RY RZ
   axis XYZ
   position 0 0 0  
   orientation 0 0 0 
:bonedata
  begin
     id 1 
     name lhipjoint
     direction 0.54267 -0.795011 0.271047 
     length 2.39899 
     axis 0 0 0  XYZ
  end
  begin
     id 2 
     name lfemur
     direction 0.34202 -0.939693 0  
     length 7.49701  
     axis 0 0 20  XYZ
    dof rx ry rz
    limits (-160.0 20.0)
           (-70.0 70.0)
           (-60.0 70.0)
  end
  begin
     id 3 
     name ltibia
     direction 0.34202 -0.939693 0   
     length 8.1668   
     axis 0 0 20   XYZ
    dof rx
    limits (-10.0 170.0)
  end
  begin
     id 4 
     name lfoot
     direction 0.0736283 -0.202292 0.976554   
     length 2.13544   
     axis -90 7.62852e-016 20   XYZ
    dof rx rz
    limits (-45.0 90.0)
           (-70.0 20.0)
  end
  begin
     id 5 
     name ltoes
     direction 1.53557e-011 -4.22024e-011 1   
     length 1.07411   
     axis -90 7.62852e-016 20   XYZ
    dof rx
    limits (-90.0 20.0)
  end
  begin
     id 6 
     name rhipjoint
     direction -0.538061 -0.797813 0.272002   
     length 2.39057  
     axis 0 0 0  XYZ 
  end
  begin
     id 7 
     name rfemur
     direction -0.34202 -0.939693 0   
     length 7.50152   
     axis 0 0 -20   XYZ
    dof rx ry rz
    limits (-160.0 20.0)
           (-70.0 70.0)
           (-70.0 60.0)
  end
  begin
     id 8 
     name rtibia
     direction -0.34202 -0.939693 0   
     length 8.05793   
     axis 0 0 -20   XYZ
    dof rx
    limits (-10.0 170.0)
 end
 begin
     id 9 
     name rfoot
     direction -0.0765195 -0.210236 0.974652   
     length 2.28698  
     axis -90 -7.62852e-016 -20   XYZ
    dof rx rz
    limits (-45.0 90.0)
           (-20.0 70.0)
  end
  begin
     id 10 
     name rtoes
     direction -1.53542e-011 -4.21847e-011 1   
     length 1.14762   
     axis -90 -7.62852e-016 -20   XYZ
    dof rx
    limits (-90.0 20.0)
  end
  begin
     id 11 
     name lowerback
     direction -0.0217239 0.996592 -0.0795765   
     length 2.08176   
     axis 0 0 0   XYZ
    dof rx ry rz
    limits (-20.0 45.0)
           (-30.0 30.0)
           (-30.0 30.0)
  end
  begin
     id 12 
     name upperback
     direction -0.00563773 0.999651 -0.0258155   
     length 2.08898   
     axis 0 0 0   XYZ
    dof rx ry rz
    limits (-20.0 45.0)
           (-30.0 30.0)
           (-30.0 30.0)
  end
  begin
     id 13 
     name thorax
     direction 0.0032706 0.999923 0.0119599   
     length 2.0968   
     axis 0 0 0   XYZ
    dof rx ry rz
    limits (-20.0 45.0)
           (-30.0 30.0)
           (-30.0 30.0)
  end
  begin
     id 14 
     name lowerneck
     direction -0.0285886 0.99568 0.0883427   
     length 1.81272   
     axis 0 0 0   XYZ
    dof rx ry rz
    limits (-20.0 45.0)
           (-30.0 30.0)
           (-30.0 30.0)
  end
  begin
     id 15 
     name upperneck
     direction 0.0807535 0.97985 -0.18268   
     length 1.82518   
     axis 0 0 0   XYZ
    dof rx ry rz
    limits (-20.0 45.0)
           (-30.0 30.0)
           (-30.0 30.0)
  end
  begin
     id 16
     name head
     direction 0.0236605 0.997053 -0.0729767  
     length 1.84443  
     axis 0 0 0   XYZ
    dof rx ry rz
    limits (-20.0 45.0)
           (-30.0 30.0)
           (-30.0 30.0)
  end
  begin
     id 17 
     name lclavicle
     direction 0.918986 0.39378 -0.0200683  
     length 3.27822  
     axis 0 0 0   XYZ
    dof ry rz
    limits (-20.0 10.0)
           (0.0 20.0)
  end
  begin
     id 18 
     name lhumerus
     direction 1 -4.4897e-011 2.09544e-027   
     length 5.5568   
     axis 180 -30 -90   XYZ
    dof rx ry rz
    limits (-60.0 90.0)
           (-90.0 90.0)
           (-90.0 90.0)
  end
  begin
     id 19
     name lradius
     direction 1 -4.48957e-011 -1.27696e-026   
     length 3.63979   
     axis 180 -30 -90   XYZ
    dof rx
    limits (-10.0 170.0)
  end
  begin
     id 20
     name lwrist
     direction 1 -4.49001e-011 -1.49001e-026   
     length 1.8199   
     axis 9.0955e-015 90 90   XYZ
    dof ry
    limits (-180.0 0.0)
 end
  begin
     id 21 
     name lhand
     direction 1 -4.48709e-011 -2.9758e-026   
     length 0.569419   
     axis 1.90115e-014 90 90   XYZ
    dof rx rz
    limits (-90.0 90.0)
           (-45.0 45.0)
  end
  begin
     id 22 
     name lfingers
     direction 1 -4.49175e-011 -5.96505e-026   
     length 0.45908   
     axis 3.80223e-014 90 90   XYZ
    dof rx
    limits (0.0 90.0)
  end
  begin
     id 23
     name lthumb
     direction 0.707107 -6.34864e-011 0.707107   
     length 0.65915   
     axis -90 45 -3.84942e-014   XYZ
    dof rx rz
    limits (-45.0 45.0)
           (-45.0 45.0)
  end
  begin
     id 24 
     name rclavicle
     direction -0.911913 0.396426 -0.106115   
     length 3.46301  
     axis 0 0 0   XYZ 
    dof ry rz
    limits (-10.0 20.0)
           (-20.0 0.0)
  end
  begin
     id 25 
     name rhumerus
     direction -1 -4.48965e-011 7.78516e-028  
     length 5.34339   
     axis 180 30 90   XYZ
    dof rx ry rz
    limits (-90.0 60.0)
           (-90.0 90.0)
           (-90.0 90.0)
  end
  begin
     id 26 
     name rradius
     direction -1 -4.48948e-011 -5.79823e-027   
     length 3.65101   
     axis 180 30 90   XYZ
    dof rx
    limits (-10.0 170.0)
  end
  begin
     id 27 
     name rwrist
     direction -1 -4.48995e-011 -1.48996e-026   
     length 1.8255   
     axis 9.0955e-015 -90 -90   XYZ
    dof ry
    limits (-180.0 0.0)
  end
  begin
     id 28
     name rhand
     direction -1 -4.48957e-011 -2.97937e-026   
     length 0.694249   
     axis 1.90115e-014 -90 -90   XYZ
    dof rx rz
    limits (-90.0 90.0)
           (-45.0 45.0)
  end
  begin
     id 29
     name rfingers
     direction -1 -4.4898e-011 -5.95943e-026   
     length 0.559721   
     axis 3.80223e-014 -90 -90   XYZ
    dof rx
    limits (0.0 90.0)
  end
  begin
     id 30
     name rthumb
     direction -0.707107 -6.34969e-011 0.707107   
     length 0.803651   
     axis -90 -45 3.84942e-014   XYZ
    dof rx rz
    limits (-45.0 45.0)
           (-45.0 45.0)
  end
:hierarchy
  begin
    root lhipjoint rhipjoint lowerback
    lhipjoint lfemur
    lfemur ltibia
    ltibia lfoot
    lfoot ltoes
    rhipjoint rfemur
    rfemur rtibia
    rtibia rfoot
    rfoot rtoes
    lowerback upperback
    upperback thorax
    thorax lowerneck lclavicle rclavicle
    lowerneck upperneck
    upperneck head
    lclavicle lhumerus
    lhumerus lradius
    lradius lwrist
    lwrist lhand lthumb
    lhand lfingers
    rclavicle rhumerus
    rhumerus rradius
    rradius rwrist
    rwrist rhand rthumb
    rhand rfingers
  end

#!OML:ASF H:\Terrain\Walking\May29\JustinRory\rory.ASF
:FULLY-SPECIFIED
:DEGREES
1
root 4.16943 18.8402 34.9038 -171.785 -1.29906 176.749
lowerback 2.56008 -1.71183 -4.8824
upperback -0.648425 -2.49957 -0.810713
thorax -1.93256 -1.2101 2.00132
lowerneck -13.9919 -4.49583 -0.91832
upperneck 13.408 -5.57111 -1.58772
head 6.35037 -2.84514 -0.881473
rclavicle 1.92573e-014 -3.37934e-015
rhumerus -55.6769 -30.4115 -56.8664
rradius 22.5859
rwrist 15.5655
rhand -13.8502 27.6378
rfingers 7.12502
rthumb 12.2735 -1.982
lclavicle 1.92573e-014 -3.37934e-015
lhumerus -18.9107 -8.2315 85.48
lradius 40.4867
lwrist 12.6468
lhand -26.5865 21.7521
lfingers 7.12502
lthumb -0.0207623 51.7319
rfemur -33.4419 6.02859 12.6057
rtibia 25.3764
rfoot -5.99712 -12.1448
rtoes 4.56543
lfemur 4.80937 -4.20782 -27.7585
ltibia 17.5848
lfoot -14.9983 3.7853
ltoes -22.009
2
root 4.16292 18.8371 34.7359 -171.782 -1.48957 176.875
lowerback 2.19373 -1.62744 -4.66213
upperback -0.256753 -2.34525 -0.859716
thorax -1.34457 -1.15499 1.8023
lowerneck -14.7038 -4.56466 -0.497208
upperneck 13.544 -5.78712 -1.41583
head 6.50538 -2.91748 -0.936164
rclavicle -2.04251e-014 -2.98177e-015
rhumerus -55.8513 -31.8414 -56.2674
rradius 22.5193
rwrist 16.1992
rhand -17.1019 27.1341
rfingers 7.12502
rthumb 9.13706 -2.64794
lclavicle -2.04251e-014 -2.98177e-015
lhumerus -17.9609 -9.51496 85.3703
lradius 41.0279
lwrist 12.5057
lhand -26.5138 22.9611
lfingers 7.12502
lthumb 0.0494834 52.9409
rfemur -33.1292 7.40832 12.1355
rtibia 22.6337
rfoot -7.01778 -13.4718
rtoes 7.20962
lfemur 6.09701 -4.12903 -27.5402
ltibia 16.1827
lfoot -14.0946 3.54714
ltoes -19.9906
3
root 4.16356 18.8322 34.5688 -171.826 -1.63673 176.895
lowerback 1.93419 -2.00092 -4.78557
upperback -0.0273565 -2.81097 -0.557706
thorax -0.911444 -1.39602 2.17625
lowerneck -15.4938 -4.10148 -1.27329
upperneck 14.2522 -5.08968 -0.707573
head 6.91422 -2.55391 -0.547356
rclavicle 5.725e-014 1.5704e-014
rhumerus -54.7699 -30.6832 -57.4801
rradius 22.9376
rwrist 15.6018
rhand -16.5555 27.8961
rfingers 7.12502
rthumb 9.66421 -1.86219
lclavicle 5.725e-014 1.5704e-014
lhumerus -17.4932 -9.11701 85.2235
lradius 41.5641
lwrist 12.5753
lhand -26.4874 22.5227
lfingers 7.12502
lthumb 0.0749543 52.5024
rfemur -32.9333 9.05059 11.422
rtibia 20.3661
rfoot -7.08128 -14.7817
rtoes 4.11968
lfemur 7.25831 -3.39478 -27.2494
ltibia 15.0298
lfoot -13.1237 2.68249
ltoes -20.6105
4
root 4.16609 18.8283 34.4005 -171.883 -1.78773 176.96
lowerback 1.99036 -2.23818 -4.89031
upperback 0.053041 -3.11989 -0.259222
thorax -0.81535 -1.55012 2.54651
lowerneck -14.6302 -4.11105 -1.14362
upperneck 12.981 -5.04414 -1.38868
head 6.33626 -2.59302 -0.741646
rclavicle -2.52084e-014 -6.26172e-015
rhumerus -53.9016 -28.7977 -59.15
rradius 23.6934
rwrist 13.5239
rhand -16.7681 27.9388
rfingers 7.12502
rthumb 9.45907 -1.82888
lclavicle -2.52084e-014 -6.26172e-015
lhumerus -17.2055 -9.10096 85.2255
lradius 42.1265
lwrist 12.8171
lhand -27.5802 22.7577
lfingers 7.12502
lthumb -0.980441 52.7352
rfemur -32.6627 10.6322 10.7568
rtibia 18.0991
rfoot -7.41164 -16.1769
rtoes 2.1824
lfemur 8.44127 -2.73408 -26.9069
ltibia 13.845
lfoot -12.1343 1.92377
ltoes -21.8098
5
root 4.16244 18.8259 34.23 -171.901 -2.16417 176.742
lowerback 2.15961 -2.17195 -4.92324
upperback -0.0264146 -3.0497 -0.391072
thorax -1.00324 -1.51053 2.43822
lowerneck -13.8431 -4.36846 -0.667773
upperneck 12.3113 -5.47749 -1.61023
head 5.96839 -2.80052 -0.897146
rclavicle 2.03257e-014 1.3418e-014
rhumerus -54.3551 -28.4726 -59.6276
rradius 24.3079
rwrist 12.0866
rhand -17.6397 27.2654
rfingers 7.12502
rthumb 8.61802 -2.53866
lclavicle 2.03257e-014 1.3418e-014
lhumerus -17.194 -10.4502 85.3016
lradius 42.7236
lwrist 13.0225
lhand -28.5135 22.8715
lfingers 7.12502
lthumb -1.88186 52.8429
rfemur -32.4635 11.9519 9.7854
rtibia 16.2922
rfoot -8.41723 -17.6771
rtoes 3.93576
lfemur 9.54508 -2.70956 -26.9487
ltibia 12.7466
lfoot -11.1947 1.5584
ltoes -22.573
6
root 4.1572 18.8178 34.0545 -171.931 -2.60513 176.457
lowerback 1.99651 -2.28493 -4.95397
upperback 0.119907 -3.19133 -0.475508
thorax -0.753513 -1.59146 2.35967
lowerneck -13.7434 -4.40885 -0.788255
upperneck 12.1821 -5.56973 -1.24109
head 5.92465 -2.82323 -0.765631
rclavicle -2.62147e-014 -1.15295e-014
rhumerus -54.4658 -29.1771 -59.2354
rradius 24.3428
rwrist 12.4871
rhand -16.6781 27.164
rfingers 7.12502
rthumb 9.54594 -2.59975
lclavicle -2.62147e-014 -1.15295e-014
lhumerus -16.9836 -11.1865 85.3008
lradius 43.3103
lwrist 13.1544
lhand -23.5459 18.7008
lfingers 7.12502
lthumb 2.91589 48.6606
rfemur -32.2835 13.0553 8.84867
rtibia 14.9815
rfoot -9.59713 -19.0753
rtoes 7.16252
lfemur 10.5884 -2.36962 -26.9302
ltibia 11.8277
lfoot -10.22 0.75498
ltoes -23.6655
